<svg width="32" height="32" viewBox="0 0 32 32" fill="none" xmlns="http://www.w3.org/2000/svg">
  <!-- PlanetTogether PT logo based on actual company branding -->
  <g>
    <!-- Background circle -->
    <circle cx="16" cy="16" r="15" fill="#FFFFFF" stroke="none"/>
    
    <!-- Left blue arc (forming P) -->
    <path d="M 16 1 A 15 15 0 0 1 31 16 L 16 16 Z" fill="#4A90E2"/>
    
    <!-- Small blue section top right -->  
    <path d="M 16 1 L 31 1 A 15 15 0 0 1 29 5 L 16 16 Z" fill="#4A90E2"/>
    
    <!-- Gray sections forming T -->
    <path d="M 16 16 L 16 31 A 15 15 0 0 1 1 16 Z" fill="#8B8B8B"/>
    
    <path d="M 16 16 L 31 16 A 15 15 0 0 1 16 31 Z" fill="#8B8B8B"/>
    
    <!-- Central PT structure -->
    <rect x="13" y="4" width="6" height="24" fill="#8B8B8B" rx="1"/>
    <rect x="4" y="13" width="24" height="6" fill="#FFFFFF" rx="1"/>
  </g>
</svg>