<svg width="32" height="32" viewBox="0 0 32 32" fill="none" xmlns="http://www.w3.org/2000/svg">
  <!-- PlanetTogether PT logo - simplified accurate version -->
  <g>
    <!-- Background circle - black -->
    <circle cx="16" cy="16" r="16" fill="#000000"/>
    
    <!-- Blue curved left section -->
    <path d="M 0 16 A 16 16 0 0 1 16 0 L 16 16 Z" fill="#3498DB"/>
    
    <!-- Blue small top right triangular section -->
    <path d="M 16 0 L 32 0 A 16 16 0 0 1 27 8 L 16 16 Z" fill="#3498DB"/>
    
    <!-- Gray right section -->
    <path d="M 16 16 L 32 16 A 16 16 0 0 1 16 32 Z" fill="#999999"/>
    
    <!-- Gray bottom left section -->  
    <path d="M 0 16 A 16 16 0 0 1 16 32 L 16 16 Z" fill="#999999"/>
    
    <!-- Internal PT letter forms with gray blocks -->
    <rect x="6" y="10" width="6" height="12" fill="#999999"/>
    <rect x="6" y="10" width="8" height="3" fill="#999999"/>
    <rect x="6" y="15" width="6" height="2" fill="#999999"/>
    <rect x="20" y="10" width="6" height="12" fill="#999999"/>
    <rect x="18" y="10" width="10" height="3" fill="#999999"/>
  </g>
</svg>